<svg xmlns="http://www.w3.org/2000/svg" xmlns:xlink="http://www.w3.org/1999/xlink" viewBox="0,0,256,256" width="32px" height="32px"><g fill="#05d8f6" fill-rule="nonzero" stroke="none" stroke-width="1" stroke-linecap="butt" stroke-linejoin="miter" stroke-miterlimit="10" stroke-dasharray="" stroke-dashoffset="0" font-family="none" font-weight="none" font-size="none" text-anchor="none" style="mix-blend-mode: normal"><g transform="scale(8,8)"><path d="M6,6c-2.206,0 -4,1.794 -4,4v12c0,2.206 1.794,4 4,4h20c2.206,0 4,-1.794 4,-4v-12c0,-2.206 -1.794,-4 -4,-4zM6,8h20c1.103,0 2,0.897 2,2v12c0,1.103 -0.897,2 -2,2h-20c-1.103,0 -2,-0.897 -2,-2v-12c0,-1.103 0.897,-2 2,-2zM12,10v4.55469c-0.59,-0.344 -1.268,-0.55469 -2,-0.55469c-2.209,0 -4,1.791 -4,4c0,2.209 1.791,4 4,4c0.732,0 1.41,-0.21069 2,-0.55469v0.55469h3v-12zM22,10v4.55469c-0.59,-0.344 -1.268,-0.55469 -2,-0.55469c-2.209,0 -4,1.791 -4,4c0,2.209 1.791,4 4,4c0.732,0 1.41,-0.21069 2,-0.55469v0.55469h3v-12zM10.5,16.5c0.828,0 1.5,0.672 1.5,1.5c0,0.828 -0.672,1.5 -1.5,1.5c-0.828,0 -1.5,-0.672 -1.5,-1.5c0,-0.828 0.672,-1.5 1.5,-1.5zM20.5,16.5c0.828,0 1.5,0.672 1.5,1.5c0,0.828 -0.672,1.5 -1.5,1.5c-0.828,0 -1.5,-0.672 -1.5,-1.5c0,-0.828 0.672,-1.5 1.5,-1.5z"></path></g></g></svg>